<svg xmlns="http://www.w3.org/2000/svg" viewBox="0 0 512 512"><rect width="512" height="512" rx="112" fill="#315c43"/><path d="M156 230c0-49 39-88 88-88 11 0 22 2 32 6 16-29 55-40 84-22 25 15 36 47 25 74 27 13 45 41 45 73 0 43-35 78-78 78H178c-53 0-96-43-96-96 0-38 22-71 54-86 5 22 12 42 20 61z" fill="#f5f1e8"/><path d="M163 350h194v34c0 17-13 30-30 30H193c-17 0-30-13-30-30z" fill="#d99a61"/><path d="M256 191v133M202 226c31 6 54 27 54 53M311 226c-31 6-55 27-55 53" fill="none" stroke="#315c43" stroke-width="22" stroke-linecap="round"/></svg>
